<svg width="24" height="24" viewBox="0 0 24 24" fill="none" xmlns="http://www.w3.org/2000/svg">
  <path d="M12.01 2.01C6.5 2.01 2.01 6.5 2.01 12.01C2.01 13.9 2.54 15.68 3.46 17.18L2 22L6.92 20.58C8.4 21.5 10.15 22.01 12.01 22.01C17.52 22.01 22.01 17.52 22.01 12.01C22.01 6.5 17.52 2.01 12.01 2.01ZM17.14 16.32C16.93 16.92 15.82 17.43 15.26 17.5C14.7 17.56 13.91 17.68 10.87 16.42C7.57 15.06 5.43 11.66 5.27 11.45C5.11 11.23 3.96 9.71 3.96 8.11C3.96 6.51 4.78 5.75 5.11 5.4C5.43 5.06 5.92 4.96 6.3 4.96C6.68 4.96 7 4.95 7.28 5.62C7.56 6.3 8.24 7.97 8.32 8.15C8.42 8.35 8.5 8.62 8.35 8.92C8.21 9.24 8.1 9.38 7.89 9.63C7.68 9.87 7.45 10.16 7.26 10.36C7.05 10.59 6.82 10.83 7.08 11.27C7.33 11.71 8.21 13.15 9.5 14.31C11.16 15.81 12.51 16.29 12.98 16.49C13.43 16.69 13.97 16.66 14.33 16.27C14.73 15.83 15.2 15.15 15.68 14.47C16.03 13.96 16.49 13.88 16.92 14.05C17.38 14.21 19.82 15.42 20.32 15.67C20.81 15.92 21.14 16.04 21.26 16.25C21.39 16.47 21.39 17.47 20.93 18.06" fill="#757575"/>
</svg>
